<svg xmlns="http://www.w3.org/2000/svg" width="760" height="200" viewBox="0 0 760 200" role="img" aria-label="DocuScan">
  <defs>
    <linearGradient id="ds-lockup-bg" x1="26" y1="22" x2="176" y2="178" gradientUnits="userSpaceOnUse">
      <stop offset="0" stop-color="#fb923c"/>
      <stop offset="0.54" stop-color="#f97316"/>
      <stop offset="1" stop-color="#c2410c"/>
    </linearGradient>
    <linearGradient id="ds-lockup-paper" x1="71" y1="44" x2="133" y2="158" gradientUnits="userSpaceOnUse">
      <stop offset="0" stop-color="#ffffff"/>
      <stop offset="1" stop-color="#fff7ed"/>
    </linearGradient>
    <filter id="ds-lockup-shadow" x="36" y="34" width="128" height="142" color-interpolation-filters="sRGB" filterUnits="userSpaceOnUse">
      <feDropShadow dx="0" dy="8" stdDeviation="8" flood-color="#7c2d12" flood-opacity="0.24"/>
    </filter>
  </defs>

  <rect x="20" y="20" width="160" height="160" rx="38" fill="url(#ds-lockup-bg)"/>
  <path d="M44 126c13 15 34 27 57 27 26 0 48-12 63-31" fill="none" stroke="#fed7aa" stroke-width="8" stroke-linecap="round" opacity="0.44"/>
  <g filter="url(#ds-lockup-shadow)">
    <path d="M72 44h48l28 29v83c0 7-5 12-12 12H72c-7 0-12-5-12-12V56c0-7 5-12 12-12Z" fill="url(#ds-lockup-paper)"/>
    <path d="M119 44v21c0 7 5 12 12 12h17l-29-33Z" fill="#fed7aa"/>
  </g>
  <path d="M76 89h55M76 110h55M76 131h36" fill="none" stroke="#9a3412" stroke-width="7" stroke-linecap="round" opacity="0.22"/>
  <rect x="52" y="99" width="103" height="19" rx="9.5" fill="#14b8a6"/>
  <path d="M65 108.5h78" fill="none" stroke="#ecfeff" stroke-width="5" stroke-linecap="round"/>
  <path d="M57 68V56c0-7 6-13 13-13h12M143 68V56c0-7-6-13-13-13h-12M57 132v12c0 7 6 13 13 13h12M143 132v12c0 7-6 13-13 13h-12" fill="none" stroke="#ffffff" stroke-width="8" stroke-linecap="round" stroke-linejoin="round"/>

  <text x="218" y="115" fill="#0f172a" font-family="Inter, ui-sans-serif, system-ui, -apple-system, BlinkMacSystemFont, 'Segoe UI', sans-serif" font-size="68" font-weight="800">Docu</text>
  <text x="405" y="115" fill="#f97316" font-family="Inter, ui-sans-serif, system-ui, -apple-system, BlinkMacSystemFont, 'Segoe UI', sans-serif" font-size="68" font-weight="800">Scan</text>
  <text x="222" y="152" fill="#64748b" font-family="Inter, ui-sans-serif, system-ui, -apple-system, BlinkMacSystemFont, 'Segoe UI', sans-serif" font-size="23" font-weight="600">Scan, edit, sign and share PDFs in seconds</text>
</svg>
